PathFileType	4	(x/y/z)	S10_P20_T02
DataRate	CameraRate	NumFrames	NumMarkers	Units	OrigDataRate	OrigDataStartFrame	OrigNumFrames
240	240	6	51	mm	240	106	422
Frame#	Time	Sternum			R.Acromium			L.Acromium			Top.Head			R.ASIS			L.ASIS			R.PSIS			L.PSIS			R.Great.Tro			L.Great.Tro			R.Iliac.Crest			L.Iliac.Crest			V.Sacral			R.Thigh.Upper.Post			R.Thigh.Lower.Ant			R.Thigh.Lower.Post			R.Thigh.Upper.Ant			R.Knee.Lat			R.Knee.Med			R.Shank.Upper.Post			R.Shank.Lower.Ant			R.Shank.Lower.Post			R.Shank.Upper.Ant			R.Ankle.Lat			R.Ankle.Med			R.Heel.Upper			R.Heel.Med			R.Heel.Lat			R.Toe.Lat			R.Toe.Med			R.Toe.Tip			L.Thigh.Upper.Post			L.Thigh.Lower.Ant			L.Thigh.Lower.Post			L.Thigh.Upper.Ant			L.Knee.Lat			L.Knee.Med			L.Shank.Upper.Post			L.Shank.Lower.Ant			L.Shank.Lower.Post			L.Shank.Upper.Ant			L.Ankle.Lat			L.Ankle.Med			L.Heel.Upper			L.Heel.Med			L.Heel.Lat			L.Toe.Lat			L.Toe.Med			L.Toe.Tip			Cervical.Spine			Back			
		X1	Y1	Z1	X2	Y2	Z2	X3	Y3	Z3	X4	Y4	Z4	X5	Y5	Z5	X6	Y6	Z6	X7	Y7	Z7	X8	Y8	Z8	X9	Y9	Z9	X10	Y10	Z10	X11	Y11	Z11	X12	Y12	Z12	X13	Y13	Z13	X14	Y14	Z14	X15	Y15	Z15	X16	Y16	Z16	X17	Y17	Z17	X18	Y18	Z18	X19	Y19	Z19	X20	Y20	Z20	X21	Y21	Z21	X22	Y22	Z22	X23	Y23	Z23	X24	Y24	Z24	X25	Y25	Z25	X26	Y26	Z26	X27	Y27	Z27	X28	Y28	Z28	X29	Y29	Z29	X30	Y30	Z30	X31	Y31	Z31	X32	Y32	Z32	X33	Y33	Z33	X34	Y34	Z34	X35	Y35	Z35	X36	Y36	Z36	X37	Y37	Z37	X38	Y38	Z38	X39	Y39	Z39	X40	Y40	Z40	X41	Y41	Z41	X42	Y42	Z42	X43	Y43	Z43	X44	Y44	Z44	X45	Y45	Z45	X46	Y46	Z46	X47	Y47	Z47	X48	Y48	Z48	X49	Y49	Z49	X50	Y50	Z50	X51	Y51	Z51	

106	0.4375	-710.11	1289.4	354.23	-860.85	1437.3	494.03	-813.43	1480.6	202.37	-873.06	1759	376.45	-768.04	1021.9	445.06	-748.72	1033.3	217.16	-962.53	1034.5	343.26	-949.71	1043.6	263.82	-836.17	943.13	515.67	-812.16	965.52	154.63	-875.59	1098.3	481.1	-819.34	1108.6	185.59	-977.92	1004.9	304.37	-759.21	739.97	516.11	-682.35	682.69	479.44	-738.65	653.24	507.64	-702.15	771.99	483.04	-700.38	535.5	467.97	-700.96	535.75	339.58	-711.78	302.83	475.29	-630.97	260.38	469.2	-689.59	231.41	471.63	-648.19	335.93	471.73	-636.17	127.02	459.88	-623.41	141.91	382.23	-671.7	59.08	406.57	-650.51	36.983	381.41	-663.74	38.106	441.74	-505.25	85.173	506.44	-469.02	101.27	402.27	-427.65	138.37	448.5	-912.11	711.47	165.02	-863.49	616.13	192.97	-935.79	619.63	188.43	-835.2	700.32	170.14	-926.51	524.71	199.45	-916.1	524.39	329	-1045.2	338.21	199.67	-1011	234.56	223.18	-1065	263.96	212.17	-990.59	308.11	210.51	-1077.6	137.83	227.67	-1066	145.14	314.99	-1154.4	126.4	274.17	-1151.6	88.397	303.04	-1154	97.994	239.85	-986.17	46.45	200.93	-961.42	43.338	308.59	-903.87	44.378	260.83	-915.73	1503.3	347.16	-994.56	1297	308.9
107	0.44167	-704.73	1288.8	354.81	-855.4	1436.8	494.59	-807.95	1480.2	202.95	-867.82	1758.5	377.03	-762.69	1021.4	445.55	-743.32	1032.7	217.62	-957.15	1034.1	343.62	-944.3	1043.2	264.19	-831.04	942.68	516.12	-806.96	965.13	155	-870.19	1097.8	481.56	-813.74	1108.1	186.06	-972.55	1004.6	304.72	-754.72	739.24	516.75	-678.06	681.7	480.14	-734.54	652.46	508.23	-697.49	771.08	483.84	-695.78	534.96	468.36	-697.85	534.68	339.78	-703.6	302.15	476.31	-622.22	260.86	469.29	-680.34	231.03	472.52	-640.54	336.22	471.93	-625.39	127.3	460.39	-613.63	142.27	382.61	-660.51	58.6	407.66	-639.01	36.706	382.35	-651.69	37.795	442.81	-493.17	87.582	505.75	-458.3	103.96	401.2	-417.03	141.92	446.91	-907.86	711.47	165.56	-859.45	615.92	193.19	-931.63	619.75	188.81	-830.99	700.02	170.43	-922.79	524.7	199.8	-912.13	524.22	329.29	-1042.7	339.03	199.91	-1009.3	235.09	223.33	-1063	264.91	212.37	-988.33	308.48	210.73	-1076.7	138.81	227.83	-1064.9	146.05	315.1	-1153.4	127.94	274.25	-1150.9	89.971	303.17	-1153.4	99.516	240.06	-985.98	46.559	200.97	-961.22	43.407	308.51	-903.79	44.309	260.83	-910.25	1502.9	347.69	-989.13	1296.6	309.37
108	0.44583	-699.35	1288.3	355.4	-849.94	1436.3	495.17	-802.48	1479.7	203.55	-862.57	1757.9	377.61	-757.31	1020.8	446.03	-737.91	1032.2	218.08	-951.74	1033.7	344	-938.88	1042.9	264.57	-825.86	942.22	516.58	-801.74	964.73	155.37	-864.77	1097.3	482.03	-808.14	1107.6	186.52	-967.16	1004.2	305.08	-750.1	738.54	517.39	-673.65	680.75	480.81	-730.29	651.7	508.8	-692.72	770.2	484.62	-691.09	534.44	468.75	-694.66	533.63	340.01	-695.66	301.53	477.28	-613.8	261.3	469.35	-671.45	230.7	473.37	-633.11	336.47	472.11	-615.13	127.6	460.85	-604.37	142.59	382.95	-649.95	58.195	408.72	-628.19	36.467	383.26	-640.29	37.562	443.85	-481.7	89.834	504.99	-448.21	106.41	400.05	-406.98	145.16	445.24	-903.52	711.41	166.14	-855.27	615.69	193.43	-927.35	619.81	189.21	-826.68	699.7	170.74	-918.93	524.64	200.18	-908.02	524.01	329.61	-1040.1	339.86	200.16	-1007.5	235.61	223.48	-1061.1	265.86	212.59	-985.98	308.84	210.97	-1075.7	139.81	227.98	-1063.7	146.97	315.2	-1152.3	129.52	274.33	-1150.1	91.588	303.3	-1152.7	101.08	240.28	-985.79	46.67	201.01	-961.02	43.47	308.42	-903.72	44.245	260.83	-904.76	1502.4	348.24	-983.7	1296.1	309.85
109	0.45	-693.96	1287.7	356.01	-844.48	1435.8	495.75	-797.02	1479.2	204.15	-857.31	1757.4	378.2	-751.9	1020.4	446.52	-732.48	1031.7	218.54	-946.31	1033.3	344.39	-933.44	1042.5	264.97	-820.61	941.77	517.04	-796.5	964.3	155.76	-859.32	1096.8	482.51	-802.55	1107.1	186.99	-961.74	1003.9	305.46	-745.35	737.87	518.01	-669.11	679.85	481.44	-725.9	650.97	509.35	-687.84	769.36	485.35	-686.31	533.93	469.14	-691.38	532.61	340.25	-687.98	300.96	478.2	-605.72	261.68	469.38	-662.93	230.4	474.19	-625.9	336.67	472.27	-605.41	127.87	461.28	-595.64	142.87	383.25	-640.03	57.85	409.74	-618.06	36.248	384.16	-629.56	37.386	444.85	-470.86	91.889	504.15	-438.74	108.57	398.85	-397.5	148.06	443.49	-899.09	711.29	166.75	-850.95	615.41	193.69	-922.93	619.81	189.65	-822.27	699.34	171.08	-914.93	524.54	200.58	-903.77	523.75	329.96	-1037.4	340.69	200.42	-1005.6	236.14	223.63	-1059	266.82	212.82	-983.53	309.2	211.22	-1074.7	140.83	228.14	-1062.5	147.9	315.3	-1151.2	131.13	274.41	-1149.3	93.249	303.42	-1152	102.68	240.49	-985.58	46.783	201.04	-960.82	43.529	308.33	-903.65	44.185	260.84	-899.27	1502	348.8	-978.26	1295.7	310.35
110	0.45417	-688.57	1287.2	356.62	-839.01	1435.2	496.34	-791.56	1478.7	204.76	-852.03	1756.9	378.79	-746.46	1019.9	447	-727.04	1031.1	219	-940.86	1032.9	344.8	-927.98	1042.1	265.38	-815.28	941.32	517.51	-791.23	963.86	156.14	-853.85	1096.3	483	-796.98	1106.7	187.46	-956.29	1003.5	305.85	-740.47	737.24	518.61	-664.45	678.99	482.02	-721.34	650.28	509.87	-682.85	768.57	486.04	-681.42	533.44	469.53	-687.97	531.64	340.52	-680.55	300.43	479.07	-597.97	261.97	469.39	-654.78	230.12	474.96	-618.91	336.81	472.41	-596.23	128.11	461.66	-587.44	143.07	383.52	-630.76	57.55	410.73	-608.63	36.034	385.03	-619.52	37.25	445.83	-460.66	93.714	503.26	-429.9	110.41	397.6	-388.6	150.57	441.68	-894.57	711.1	167.39	-846.5	615.1	193.99	-918.39	619.74	190.13	-817.75	698.95	171.45	-910.77	524.4	201.02	-899.37	523.44	330.33	-1034.6	341.52	200.69	-1003.7	236.66	223.79	-1056.9	267.78	213.07	-980.98	309.54	211.48	-1073.6	141.88	228.29	-1061.2	148.85	315.38	-1150	132.79	274.48	-1148.4	94.957	303.54	-1151.3	104.33	240.7	-985.38	46.898	201.07	-960.62	43.583	308.23	-903.58	44.128	260.86	-893.79	1501.5	349.37	-972.81	1295.2	310.86
111	0.45833	-683.17	1286.6	357.24	-833.54	1434.7	496.95	-786.12	1478.3	205.39	-846.74	1756.4	379.38	-740.99	1019.4	447.49	-721.59	1030.6	219.45	-935.39	1032.4	345.23	-922.51	1041.7	265.81	-809.89	940.86	517.99	-785.94	963.4	156.54	-848.35	1095.8	483.51	-791.42	1106.2	187.92	-950.82	1003	306.27	-735.46	736.63	519.19	-659.64	678.19	482.55	-716.63	649.62	510.36	-677.75	767.82	486.67	-676.43	532.96	469.92	-684.42	530.72	340.8	-673.39	299.93	479.87	-590.57	262.18	469.38	-647.01	229.84	475.69	-612.14	336.87	472.52	-587.61	128.3	462.01	-579.78	143.18	383.77	-622.14	57.28	411.69	-599.92	35.812	385.87	-610.2	37.136	446.77	-451.12	95.273	502.33	-421.7	111.91	396.33	-380.28	152.66	439.85	-889.96	710.86	168.07	-841.91	614.76	194.31	-913.73	619.61	190.66	-813.13	698.53	171.85	-906.47	524.22	201.48	-894.83	523.09	330.74	-1031.6	342.36	200.97	-1001.6	237.18	223.95	-1054.7	268.74	213.34	-978.33	309.87	211.76	-1072.5	142.94	228.44	-1059.9	149.82	315.46	-1148.8	134.5	274.55	-1147.5	96.714	303.66	-1150.5	106.03	240.9	-985.17	47.012	201.09	-960.41	43.631	308.12	-903.52	44.074	260.88	-888.31	1501	349.97	-967.34	1294.8	311.38
